<?xml version="1.0" encoding="UTF-8"?>
<svg id="Vrstva_1" xmlns="http://www.w3.org/2000/svg" version="1.1" viewBox="0 0 28.094 25.2">
  <!-- Generator: Adobe Illustrator 30.1.0, SVG Export Plug-In . SVG Version: 2.1.1 Build 136)  -->
  <defs>
    <style>
      .st0 {
        fill: #0a2232;
      }

      .st1 {
        fill: #0ce277;
      }
    </style>
  </defs>
  <polygon class="st1" points="24.094 3.8 24.794 0 21.394 0 20.594 3.8 16.494 3.8 15.794 7 19.894 7 19.194 10.8 22.594 10.8 23.394 7 27.494 7 28.094 3.8 24.094 3.8"/>
  <path class="st0" d="M15.4,9.6c-.9-1-2.1-1.6-3.8-1.6-1.5,0-2.8.5-4,1.6l.3-1.3H3.4L0,25.2h4.6l1.1-5.4c.7,1.1,1.9,1.6,3.5,1.6,2.9,0,6.2-2,7.1-6.4.4-2.3.1-4.2-.9-5.4ZM11.7,14.5c-.3,1.6-1.4,3.5-3.3,3.5-.7,0-1.3-.2-1.6-.6-.4-.5-.5-1.5-.2-2.9.5-2.4,2-3.2,3.3-3.2.7,0,1.2.2,1.5.6.4.6.6,1.5.3,2.6Z"/>
</svg>